/videos/e0140b79-d19f-7c62-2c83-c619d031efe3/hls1/main/0.ts

{"Protocol":0,"Id":"e0140b79d19f7c622c83c619d031efe3","Path":"/data/tvshows/The IT Crowd/Season 1/The IT Crowd - S01E01 - Yesterday\u0027s Jam WEBDL-720p Proper.mp4","EncoderPath":null,"EncoderProtocol":null,"Type":0,"Container":"mov,mp4,m4a,3gp,3g2,mj2","Size":175816016,"Name":"The IT Crowd - S01E01 - Yesterday\u0027s Jam WEBDL-720p Proper","IsRemote":false,"ETag":"7718537e9a784770f0b60c9fef6ae339","RunTimeTicks":14000220160,"ReadAtNativeFramerate":false,"IgnoreDts":false,"IgnoreIndex":false,"GenPtsInput":false,"SupportsTranscoding":true,"SupportsDirectStream":true,"SupportsDirectPlay":true,"IsInfiniteStream":false,"RequiresOpening":false,"OpenToken":null,"RequiresClosing":false,"LiveStreamId":null,"BufferMs":null,"RequiresLooping":false,"SupportsProbing":true,"VideoType":0,"IsoType":null,"Video3DFormat":null,"MediaStreams":[{"Codec":"hevc","CodecTag":"hvc1","Language":"und","ColorRange":null,"ColorSpace":"bt709","ColorTransfer":"bt709","ColorPrimaries":"bt709","DvVersionMajor":null,"DvVersionMinor":null,"DvProfile":null,"DvLevel":null,"RpuPresentFlag":null,"ElPresentFlag":null,"BlPresentFlag":null,"DvBlSignalCompatibilityId":null,"Comment":null,"TimeBase":"1/90000","CodecTimeBase":null,"Title":null,"VideoRange":"SDR","VideoRangeType":"SDR","VideoDoViTitle":null,"LocalizedUndefined":null,"LocalizedDefault":null,"LocalizedForced":null,"LocalizedExternal":null,"DisplayTitle":"720p HEVC SDR","NalLengthSize":null,"IsInterlaced":false,"IsAVC":null,"ChannelLayout":null,"BitRate":885427,"BitDepth":8,"RefFrames":1,"PacketLength":null,"Channels":null,"SampleRate":null,"IsDefault":true,"IsForced":false,"Height":720,"Width":1256,"AverageFrameRate":25,"RealFrameRate":25,"Profile":"Main","Type":1,"AspectRatio":"157:90","Index":0,"Score":null,"IsExternal":false,"DeliveryMethod":null,"DeliveryUrl":null,"IsExternalUrl":null,"IsTextSubtitleStream":false,"SupportsExternalStream":false,"Path":null,"PixelFormat":"yuv420p","Level":93,"IsAnamorphic":null},{"Codec":"aac","CodecTag":"mp4a","Language":"eng","ColorRange":null,"ColorSpace":null,"ColorTransfer":null,"ColorPrimaries":null,"DvVersionMajor":null,"DvVersionMinor":null,"DvProfile":null,"DvLevel":null,"RpuPresentFlag":null,"ElPresentFlag":null,"BlPresentFlag":null,"DvBlSignalCompatibilityId":null,"Comment":null,"TimeBase":"1/48000","CodecTimeBase":null,"Title":"English","VideoRange":null,"VideoRangeType":null,"VideoDoViTitle":null,"LocalizedUndefined":null,"LocalizedDefault":null,"LocalizedForced":null,"LocalizedExternal":null,"DisplayTitle":"English - AAC - Stereo - Default","NalLengthSize":null,"IsInterlaced":false,"IsAVC":null,"ChannelLayout":"stereo","BitRate":112692,"BitDepth":null,"RefFrames":null,"PacketLength":null,"Channels":2,"SampleRate":48000,"IsDefault":true,"IsForced":false,"Height":null,"Width":null,"AverageFrameRate":null,"RealFrameRate":null,"Profile":"LC","Type":0,"AspectRatio":null,"Index":1,"Score":null,"IsExternal":false,"DeliveryMethod":null,"DeliveryUrl":null,"IsExternalUrl":null,"IsTextSubtitleStream":false,"SupportsExternalStream":false,"Path":null,"PixelFormat":null,"Level":0,"IsAnamorphic":null},{"Codec":"mov_text","CodecTag":"tx3g","Language":"eng","ColorRange":null,"ColorSpace":null,"ColorTransfer":null,"ColorPrimaries":null,"DvVersionMajor":null,"DvVersionMinor":null,"DvProfile":null,"DvLevel":null,"RpuPresentFlag":null,"ElPresentFlag":null,"BlPresentFlag":null,"DvBlSignalCompatibilityId":null,"Comment":null,"TimeBase":"1/90000","CodecTimeBase":null,"Title":"English","VideoRange":null,"VideoRangeType":null,"VideoDoViTitle":null,"LocalizedUndefined":"Undefined","LocalizedDefault":"Default","LocalizedForced":"Forced","LocalizedExternal":"External","DisplayTitle":"English - Default - MOV_TEXT","NalLengthSize":null,"IsInterlaced":false,"IsAVC":null,"ChannelLayout":null,"BitRate":130,"BitDepth":null,"RefFrames":null,"PacketLength":null,"Channels":null,"SampleRate":null,"IsDefault":true,"IsForced":false,"Height":null,"Width":null,"AverageFrameRate":null,"RealFrameRate":null,"Profile":null,"Type":2,"AspectRatio":null,"Index":2,"Score":null,"IsExternal":false,"DeliveryMethod":null,"DeliveryUrl":null,"IsExternalUrl":null,"IsTextSubtitleStream":true,"SupportsExternalStream":true,"Path":null,"PixelFormat":null,"Level":0,"IsAnamorphic":null}],"MediaAttachments":[],"Formats":[],"Bitrate":1004647,"Timestamp":null,"RequiredHttpHeaders":{},"TranscodingUrl":null,"TranscodingSubProtocol":null,"TranscodingContainer":null,"AnalyzeDurationMs":null,"DefaultAudioStreamIndex":null,"DefaultSubtitleStreamIndex":null}

/usr/lib/jellyfin-ffmpeg/ffmpeg -analyzeduration 200M -f mov,mp4,m4a,3gp,3g2,mj2 -autorotate 0 -i file:"/data/tvshows/The IT Crowd/Season 1/The IT Crowd - S01E01 - Yesterday's Jam WEBDL-720p Proper.mp4" -map_metadata -1 -map_chapters -1 -threads 0 -map 0:0 -map 0:1 -map -0:s -codec:v:0 libx264 -preset veryfast -crf 23 -maxrate 4427136 -bufsize 8854272 -x264opts:0 subme=0:me_range=4:rc_lookahead=10:me=dia:no_chroma_me:8x8dct=0:partitions=none -force_key_frames:0 "expr:gte(t,0+n_forced*3)" -sc_threshold:v:0 0 -vf "setparams=color_primaries=bt709:color_trc=bt709:colorspace=bt709,scale=trunc(min(max(iw\,ih*a)\,min(1256\,720*a))/2)*2:trunc(min(max(iw/a\,ih)\,min(1256/a\,720))/2)*2,format=yuv420p" -codec:a:0 copy -copyts -avoid_negative_ts disabled -max_muxing_queue_size 2048 -f hls -max_delay 5000000 -hls_time 3 -hls_segment_type mpegts -start_number 0 -hls_segment_filename "/data/transcodes/c63542c678018ac960afd87c1ad93be5%d.ts" -hls_playlist_type vod -hls_list_size 0 -y "/data/transcodes/c63542c678018ac960afd87c1ad93be5.m3u8"


ffmpeg version 5.1.3-Jellyfin Copyright (c) 2000-2022 the FFmpeg developers
  built with gcc 11 (Ubuntu 11.3.0-1ubuntu1~22.04.1)
  configuration: --prefix=/usr/lib/jellyfin-ffmpeg --target-os=linux --extra-libs=-lfftw3f --extra-version=Jellyfin --disable-doc --disable-ffplay --disable-ptx-compression --disable-static --disable-libxcb --disable-sdl2 --disable-xlib --enable-lto --enable-gpl --enable-version3 --enable-shared --enable-gmp --enable-gnutls --enable-chromaprint --enable-libdrm --enable-libass --enable-libfreetype --enable-libfribidi --enable-libfontconfig --enable-libbluray --enable-libmp3lame --enable-libopus --enable-libtheora --enable-libvorbis --enable-libopenmpt --enable-libdav1d --enable-libwebp --enable-libvpx --enable-libx264 --enable-libx265 --enable-libzvbi --enable-libzimg --enable-libfdk-aac --arch=amd64 --enable-libsvtav1 --enable-libshaderc --enable-libplacebo --enable-vulkan --enable-opencl --enable-vaapi --enable-amf --enable-libmfx --enable-ffnvcodec --enable-cuda --enable-cuda-llvm --enable-cuvid --enable-nvdec --enable-nvenc
  libavutil      57. 28.100 / 57. 28.100
  libavcodec     59. 37.100 / 59. 37.100
  libavformat    59. 27.100 / 59. 27.100
  libavdevice    59.  7.100 / 59.  7.100
  libavfilter     8. 44.100 /  8. 44.100
  libswscale      6.  7.100 /  6.  7.100
  libswresample   4.  7.100 /  4.  7.100
  libpostproc    56.  6.100 / 56.  6.100
Input #0, mov,mp4,m4a,3gp,3g2,mj2, from 'file:/data/tvshows/The IT Crowd/Season 1/The IT Crowd - S01E01 - Yesterday's Jam WEBDL-720p Proper.mp4':
  Metadata:
    major_brand     : mp42
    minor_version   : 512
    compatible_brands: mp42iso2mp41
    creation_time   : 2023-05-08T22:15:36.000000Z
    encoder         : HandBrake 1.6.1 2023012300
  Duration: 00:23:20.02, start: 0.000000, bitrate: 1004 kb/s
  Stream #0:0[0x1](und): Video: hevc (Main) (hvc1 / 0x31637668), yuv420p(tv, bt709), 1256x720 [SAR 1:1 DAR 157:90], 885 kb/s, 25 fps, 25 tbr, 90k tbn (default)
    Metadata:
      creation_time   : 2023-05-08T22:15:36.000000Z
      handler_name    : VideoHandler
      vendor_id       : [0][0][0][0]
  Stream #0:1[0x2](eng): Audio: aac (LC) (mp4a / 0x6134706D), 48000 Hz, stereo, fltp, 112 kb/s (default)
    Metadata:
      creation_time   : 2023-05-08T22:15:36.000000Z
      handler_name    : English
      vendor_id       : [0][0][0][0]
  Stream #0:2[0x3](eng): Subtitle: mov_text (tx3g / 0x67337874), 1256x108, 0 kb/s (default)
    Metadata:
      creation_time   : 2023-05-08T22:15:36.000000Z
      handler_name    : English
Stream mapping:
  Stream #0:0 -> #0:0 (hevc (native) -> h264 (libx264))
  Stream #0:1 -> #0:1 (copy)
Press [q] to stop, [?] for help
[libx264 @ 0x564ae831fe40] using SAR=1/1
[libx264 @ 0x564ae831fe40] using cpu capabilities: MMX2 SSE2Fast SSSE3 SSE4.2 AVX FMA3 BMI2 AVX2
[libx264 @ 0x564ae831fe40] profile Main, level 3.1, 4:2:0, 8-bit
[libx264 @ 0x564ae831fe40] 264 - core 163 r3060 5db6aa6 - H.264/MPEG-4 AVC codec - Copyleft 2003-2021 - http://www.videolan.org/x264.html - options: cabac=1 ref=1 deblock=1:0:0 analyse=0x1:0 me=dia subme=0 psy=1 psy_rd=1.00:0.00 mixed_ref=0 me_range=4 chroma_me=0 trellis=0 8x8dct=0 cqm=0 deadzone=21,11 fast_pskip=1 chroma_qp_offset=0 threads=6 lookahead_threads=1 sliced_threads=0 nr=0 decimate=1 interlaced=0 bluray_compat=0 constrained_intra=0 bframes=3 b_pyramid=2 b_adapt=1 b_bias=0 direct=1 weightb=1 open_gop=0 weightp=1 keyint=250 keyint_min=25 scenecut=0 intra_refresh=0 rc_lookahead=10 rc=crf mbtree=1 crf=23.0 qcomp=0.60 qpmin=0 qpmax=69 qpstep=4 vbv_maxrate=4427 vbv_bufsize=8854 crf_max=0.0 nal_hrd=none filler=0 ip_ratio=1.40 aq=1:1.00
Output #0, hls, to '/data/transcodes/c63542c678018ac960afd87c1ad93be5.m3u8':
  Metadata:
    encoder         : Lavf59.27.100
  Stream #0:0: Video: h264, yuv420p(tv, bt709, progressive), 1256x720 [SAR 1:1 DAR 157:90], q=2-31, 25 fps, 90k tbn (default)
    Metadata:
      encoder         : Lavc59.37.100 libx264
    Side data:
      cpb: bitrate max/min/avg: 4427000/0/0 buffer size: 8854000 vbv_delay: N/A
  Stream #0:1: Audio: aac (LC) (mp4a / 0x6134706D), 48000 Hz, stereo, fltp, 112 kb/s (default)
frame=    1 fps=0.0 q=0.0 size=N/A time=00:00:00.00 bitrate=N/A speed=   0x    
frame=   58 fps=0.0 q=28.0 size=N/A time=00:00:02.30 bitrate=N/A speed=4.26x    
[hls @ 0x564ae831f180] Opening '/data/transcodes/c63542c678018ac960afd87c1ad93be50.ts' for writing
frame=  169 fps=162 q=28.0 size=N/A time=00:00:06.74 bitrate=N/A speed=6.45x    
[hls @ 0x564ae831f180] Opening '/data/transcodes/c63542c678018ac960afd87c1ad93be51.ts' for writing
[hls @ 0x564ae831f180] Opening '/data/transcodes/c63542c678018ac960afd87c1ad93be52.ts' for writing
frame=  285 fps=182 q=28.0 size=N/A time=00:00:11.37 bitrate=N/A speed=7.28x    
[hls @ 0x564ae831f180] Opening '/data/transcodes/c63542c678018ac960afd87c1ad93be53.ts' for writing
[hls @ 0x564ae831f180] Opening '/data/transcodes/c63542c678018ac960afd87c1ad93be54.ts' for writing
frame=  406 fps=197 q=28.0 size=N/A time=00:00:16.21 bitrate=N/A speed=7.86x    
[hls @ 0x564ae831f180] Opening '/data/transcodes/c63542c678018ac960afd87c1ad93be55.ts' for writing
frame=  509 fps=198 q=28.0 size=N/A time=00:00:20.33 bitrate=N/A speed=7.92x    
[hls @ 0x564ae831f180] Opening '/data/transcodes/c63542c678018ac960afd87c1ad93be56.ts' for writing
[hls @ 0x564ae831f180] Opening '/data/transcodes/c63542c678018ac960afd87c1ad93be57.ts' for writing
frame=  627 fps=204 q=28.0 size=N/A time=00:00:25.06 bitrate=N/A speed=8.16x    
[hls @ 0x564ae831f180] Opening '/data/transcodes/c63542c678018ac960afd87c1ad93be58.ts' for writing
[hls @ 0x564ae831f180] Opening '/data/transcodes/c63542c678018ac960afd87c1ad93be59.ts' for writing
frame=  776 fps=217 q=28.0 size=N/A time=00:00:31.01 bitrate=N/A speed=8.67x    
[hls @ 0x564ae831f180] Opening '/data/transcodes/c63542c678018ac960afd87c1ad93be510.ts' for writing
frame=  865 fps=212 q=28.0 size=N/A time=00:00:34.58 bitrate=N/A speed=8.48x    
[hls @ 0x564ae831f180] Opening '/data/transcodes/c63542c678018ac960afd87c1ad93be511.ts' for writing
frame=  970 fps=212 q=28.0 size=N/A time=00:00:38.78 bitrate=N/A speed=8.46x    
[hls @ 0x564ae831f180] Opening '/data/transcodes/c63542c678018ac960afd87c1ad93be512.ts' for writing
frame= 1063 fps=209 q=28.0 size=N/A time=00:00:42.49 bitrate=N/A speed=8.35x    
[hls @ 0x564ae831f180] Opening '/data/transcodes/c63542c678018ac960afd87c1ad93be513.ts' for writing
[hls @ 0x564ae831f180] Opening '/data/transcodes/c63542c678018ac960afd87c1ad93be514.ts' for writing
frame= 1207 fps=216 q=28.0 size=N/A time=00:00:48.25 bitrate=N/A speed=8.63x    
[hls @ 0x564ae831f180] Opening '/data/transcodes/c63542c678018ac960afd87c1ad93be515.ts' for writing
[hls @ 0x564ae831f180] Opening '/data/transcodes/c63542c678018ac960afd87c1ad93be516.ts' for writing
frame= 1344 fps=221 q=28.0 size=N/A time=00:00:53.73 bitrate=N/A speed=8.82x    
[hls @ 0x564ae831f180] Opening '/data/transcodes/c63542c678018ac960afd87c1ad93be517.ts' for writing
[hls @ 0x564ae831f180] Opening '/data/transcodes/c63542c678018ac960afd87c1ad93be518.ts' for writing
frame= 1500 fps=228 q=28.0 size=N/A time=00:00:59.98 bitrate=N/A speed= 9.1x    
[hls @ 0x564ae831f180] Opening '/data/transcodes/c63542c678018ac960afd87c1ad93be519.ts' for writing
[hls @ 0x564ae831f180] Opening '/data/transcodes/c63542c678018ac960afd87c1ad93be520.ts' for writing
frame= 1647 fps=232 q=28.0 size=N/A time=00:01:05.85 bitrate=N/A speed=9.28x    
[hls @ 0x564ae831f180] Opening '/data/transcodes/c63542c678018ac960afd87c1ad93be521.ts' for writing
[hls @ 0x564ae831f180] Opening '/data/transcodes/c63542c678018ac960afd87c1ad93be522.ts' for writing
frame= 1805 fps=238 q=28.0 size=N/A time=00:01:12.17 bitrate=N/A speed= 9.5x    
[hls @ 0x564ae831f180] Opening '/data/transcodes/c63542c678018ac960afd87c1ad93be523.ts' for writing
[hls @ 0x564ae831f180] Opening '/data/transcodes/c63542c678018ac960afd87c1ad93be524.ts' for writing
frame= 1941 fps=240 q=28.0 size=N/A time=00:01:17.61 bitrate=N/A speed=9.58x    
[hls @ 0x564ae831f180] Opening '/data/transcodes/c63542c678018ac960afd87c1ad93be525.ts' for writing
[hls @ 0x564ae831f180] Opening '/data/transcodes/c63542c678018ac960afd87c1ad93be526.ts' for writing
frame= 2081 fps=242 q=28.0 size=N/A time=00:01:23.22 bitrate=N/A speed=9.67x    
[hls @ 0x564ae831f180] Opening '/data/transcodes/c63542c678018ac960afd87c1ad93be527.ts' for writing
[hls @ 0x564ae831f180] Opening '/data/transcodes/c63542c678018ac960afd87c1ad93be528.ts' for writing
frame= 2228 fps=245 q=28.0 size=N/A time=00:01:29.10 bitrate=N/A speed=9.78x    
[hls @ 0x564ae831f180] Opening '/data/transcodes/c63542c678018ac960afd87c1ad93be529.ts' for writing
[hls @ 0x564ae831f180] Opening '/data/transcodes/c63542c678018ac960afd87c1ad93be530.ts' for writing
frame= 2366 fps=246 q=28.0 size=N/A time=00:01:34.61 bitrate=N/A speed=9.84x    
[hls @ 0x564ae831f180] Opening '/data/transcodes/c63542c678018ac960afd87c1ad93be531.ts' for writing
frame= 2480 fps=245 q=28.0 size=N/A time=00:01:39.17 bitrate=N/A speed=9.81x    
[hls @ 0x564ae831f180] Opening '/data/transcodes/c63542c678018ac960afd87c1ad93be532.ts' for writing
[hls @ 0x564ae831f180] Opening '/data/transcodes/c63542c678018ac960afd87c1ad93be533.ts' for writing
frame= 2583 fps=243 q=28.0 size=N/A time=00:01:43.29 bitrate=N/A speed=9.73x    
[hls @ 0x564ae831f180] Opening '/data/transcodes/c63542c678018ac960afd87c1ad93be534.ts' for writing
[hls @ 0x564ae831f180] Opening '/data/transcodes/c63542c678018ac960afd87c1ad93be535.ts' for writing
frame= 2725 fps=245 q=28.0 size=N/A time=00:01:48.97 bitrate=N/A speed= 9.8x    
[hls @ 0x564ae831f180] Opening '/data/transcodes/c63542c678018ac960afd87c1ad93be536.ts' for writing
frame= 2857 fps=246 q=28.0 size=N/A time=00:01:54.26 bitrate=N/A speed=9.83x    
[hls @ 0x564ae831f180] Opening '/data/transcodes/c63542c678018ac960afd87c1ad93be537.ts' for writing
[hls @ 0x564ae831f180] Opening '/data/transcodes/c63542c678018ac960afd87c1ad93be538.ts' for writing
frame= 2958 fps=244 q=28.0 size=N/A time=00:01:58.29 bitrate=N/A speed=9.76x    
[hls @ 0x564ae831f180] Opening '/data/transcodes/c63542c678018ac960afd87c1ad93be539.ts' for writing
frame= 3058 fps=242 q=28.0 size=N/A time=00:02:02.30 bitrate=N/A speed=9.69x    
[hls @ 0x564ae831f180] Opening '/data/transcodes/c63542c678018ac960afd87c1ad93be540.ts' for writing
[hls @ 0x564ae831f180] Opening '/data/transcodes/c63542c678018ac960afd87c1ad93be541.ts' for writing
frame= 3177 fps=242 q=28.0 size=N/A time=00:02:07.06 bitrate=N/A speed=9.68x    
[hls @ 0x564ae831f180] Opening '/data/transcodes/c63542c678018ac960afd87c1ad93be542.ts' for writing
frame= 3288 fps=241 q=28.0 size=N/A time=00:02:11.49 bitrate=N/A speed=9.65x    
[hls @ 0x564ae831f180] Opening '/data/transcodes/c63542c678018ac960afd87c1ad93be543.ts' for writing
[hls @ 0x564ae831f180] Opening '/data/transcodes/c63542c678018ac960afd87c1ad93be544.ts' for writing
frame= 3426 fps=242 q=28.0 size=N/A time=00:02:17.02 bitrate=N/A speed= 9.7x    
[hls @ 0x564ae831f180] Opening '/data/transcodes/c63542c678018ac960afd87c1ad93be545.ts' for writing
[hls @ 0x564ae831f180] Opening '/data/transcodes/c63542c678018ac960afd87c1ad93be546.ts' for writing
frame= 3558 fps=243 q=28.0 size=N/A time=00:02:22.29 bitrate=N/A speed=9.72x    
[hls @ 0x564ae831f180] Opening '/data/transcodes/c63542c678018ac960afd87c1ad93be547.ts' for writing
frame= 3675 fps=243 q=28.0 size=N/A time=00:02:26.98 bitrate=N/A speed=9.71x    
[hls @ 0x564ae831f180] Opening '/data/transcodes/c63542c678018ac960afd87c1ad93be548.ts' for writing
[hls @ 0x564ae831f180] Opening '/data/transcodes/c63542c678018ac960afd87c1ad93be549.ts' for writing
frame= 3786 fps=242 q=28.0 size=N/A time=00:02:31.42 bitrate=N/A speed=9.69x    
[hls @ 0x564ae831f180] Opening '/data/transcodes/c63542c678018ac960afd87c1ad93be550.ts' for writing
frame= 3879 fps=240 q=28.0 size=N/A time=00:02:35.13 bitrate=N/A speed=9.62x    
[hls @ 0x564ae831f180] Opening '/data/transcodes/c63542c678018ac960afd87c1ad93be551.ts' for writing
frame= 3994 fps=240 q=28.0 size=N/A time=00:02:39.74 bitrate=N/A speed= 9.6x    
[hls @ 0x564ae831f180] Opening '/data/transcodes/c63542c678018ac960afd87c1ad93be552.ts' for writing
[hls @ 0x564ae831f180] Opening '/data/transcodes/c63542c678018ac960afd87c1ad93be553.ts' for writing
frame= 4094 fps=239 q=28.0 size=N/A time=00:02:43.73 bitrate=N/A speed=9.55x    
[hls @ 0x564ae831f180] Opening '/data/transcodes/c63542c678018ac960afd87c1ad93be554.ts' for writing
frame= 4216 fps=239 q=25.0 size=N/A time=00:02:48.61 bitrate=N/A speed=9.56x    
[hls @ 0x564ae831f180] Opening '/data/transcodes/c63542c678018ac960afd87c1ad93be555.ts' for writing
[hls @ 0x564ae831f180] Opening '/data/transcodes/c63542c678018ac960afd87c1ad93be556.ts' for writing
frame= 4357 fps=240 q=28.0 size=N/A time=00:02:54.25 bitrate=N/A speed= 9.6x    
[hls @ 0x564ae831f180] Opening '/data/transcodes/c63542c678018ac960afd87c1ad93be557.ts' for writing
[hls @ 0x564ae831f180] Opening '/data/transcodes/c63542c678018ac960afd87c1ad93be558.ts' for writing
frame= 4496 fps=241 q=28.0 size=N/A time=00:02:59.81 bitrate=N/A speed=9.64x    
[hls @ 0x564ae831f180] Opening '/data/transcodes/c63542c678018ac960afd87c1ad93be559.ts' for writing
[hls @ 0x564ae831f180] Opening '/data/transcodes/c63542c678018ac960afd87c1ad93be560.ts' for writing
frame= 4608 fps=241 q=28.0 size=N/A time=00:03:04.29 bitrate=N/A speed=9.62x    
[hls @ 0x564ae831f180] Opening '/data/transcodes/c63542c678018ac960afd87c1ad93be561.ts' for writing
frame= 4726 fps=240 q=28.0 size=N/A time=00:03:09.01 bitrate=N/A speed=9.62x    
[hls @ 0x564ae831f180] Opening '/data/transcodes/c63542c678018ac960afd87c1ad93be562.ts' for writing
[hls @ 0x564ae831f180] Opening '/data/transcodes/c63542c678018ac960afd87c1ad93be563.ts' for writing
frame= 4862 fps=241 q=28.0 size=N/A time=00:03:14.45 bitrate=N/A speed=9.64x    
[hls @ 0x564ae831f180] Opening '/data/transcodes/c63542c678018ac960afd87c1ad93be564.ts' for writing
[hls @ 0x564ae831f180] Opening '/data/transcodes/c63542c678018ac960afd87c1ad93be565.ts' for writing
frame= 5013 fps=243 q=28.0 size=N/A time=00:03:20.49 bitrate=N/A speed= 9.7x    
[hls @ 0x564ae831f180] Opening '/data/transcodes/c63542c678018ac960afd87c1ad93be566.ts' for writing
[hls @ 0x564ae831f180] Opening '/data/transcodes/c63542c678018ac960afd87c1ad93be567.ts' for writing
frame= 5136 fps=243 q=28.0 size=N/A time=00:03:25.41 bitrate=N/A speed= 9.7x    
[hls @ 0x564ae831f180] Opening '/data/transcodes/c63542c678018ac960afd87c1ad93be568.ts' for writing
frame= 5264 fps=243 q=28.0 size=N/A time=00:03:30.56 bitrate=N/A speed=9.72x    
[hls @ 0x564ae831f180] Opening '/data/transcodes/c63542c678018ac960afd87c1ad93be569.ts' for writing
[hls @ 0x564ae831f180] Opening '/data/transcodes/c63542c678018ac960afd87c1ad93be570.ts' for writing
frame= 5405 fps=244 q=28.0 size=N/A time=00:03:36.17 bitrate=N/A speed=9.75x    
[hls @ 0x564ae831f180] Opening '/data/transcodes/c63542c678018ac960afd87c1ad93be571.ts' for writing
[hls @ 0x564ae831f180] Opening '/data/transcodes/c63542c678018ac960afd87c1ad93be572.ts' for writing
frame= 5547 fps=245 q=28.0 size=N/A time=00:03:41.86 bitrate=N/A speed=9.78x    
[hls @ 0x564ae831f180] Opening '/data/transcodes/c63542c678018ac960afd87c1ad93be573.ts' for writing
[hls @ 0x564ae831f180] Opening '/data/transcodes/c63542c678018ac960afd87c1ad93be574.ts' for writing
frame= 5670 fps=245 q=28.0 size=N/A time=00:03:46.77 bitrate=N/A speed=9.78x    
[hls @ 0x564ae831f180] Opening '/data/transcodes/c63542c678018ac960afd87c1ad93be575.ts' for writing
[hls @ 0x564ae831f180] Opening '/data/transcodes/c63542c678018ac960afd87c1ad93be576.ts' for writing
frame= 5813 fps=245 q=28.0 size=N/A time=00:03:52.49 bitrate=N/A speed=9.82x    
[hls @ 0x564ae831f180] Opening '/data/transcodes/c63542c678018ac960afd87c1ad93be577.ts' for writing
[hls @ 0x564ae831f180] Opening '/data/transcodes/c63542c678018ac960afd87c1ad93be578.ts' for writing
frame= 5951 fps=246 q=28.0 size=N/A time=00:03:58.01 bitrate=N/A speed=9.84x    
[hls @ 0x564ae831f180] Opening '/data/transcodes/c63542c678018ac960afd87c1ad93be579.ts' for writing
frame= 6083 fps=246 q=28.0 size=N/A time=00:04:03.30 bitrate=N/A speed=9.86x    
[hls @ 0x564ae831f180] Opening '/data/transcodes/c63542c678018ac960afd87c1ad93be580.ts' for writing
[hls @ 0x564ae831f180] Opening '/data/transcodes/c63542c678018ac960afd87c1ad93be581.ts' for writing
frame= 6219 fps=247 q=28.0 size=N/A time=00:04:08.74 bitrate=N/A speed=9.87x    
[hls @ 0x564ae831f180] Opening '/data/transcodes/c63542c678018ac960afd87c1ad93be582.ts' for writing
frame= 6317 fps=246 q=28.0 size=N/A time=00:04:12.65 bitrate=N/A speed=9.83x    
[hls @ 0x564ae831f180] Opening '/data/transcodes/c63542c678018ac960afd87c1ad93be583.ts' for writing